<?xml version="1.0" encoding="UTF-8"?>
<svg width="16px" height="16px" viewBox="0 0 16 16" version="1.1" xmlns="http://www.w3.org/2000/svg" xmlns:xlink="http://www.w3.org/1999/xlink">
    <!-- Generator: Sketch 64 (93537) - https://sketch.com -->
    <title>Icon</title>
    <desc>Created with Sketch.</desc>
    <g id="首页迭代_2020_0513" stroke="none" stroke-width="1" fill="none" fill-rule="evenodd">
        <g id="新增按钮样式" transform="translate(-939.000000, -225.000000)">
            <rect fill="#FFFFFF" x="0" y="0" width="1440" height="489"></rect>
            <g id="编组-16备份" transform="translate(920.000000, 213.000000)">
                <path d="M0,20 C0,8.954305 8.94903352,0 20.008241,0 L157.991759,0 C169.042005,0 178,8.95187636 178,20 L178,20 C178,31.045695 169.050966,40 157.991759,40 L20.008241,40 C8.95799462,40 0,31.0481236 0,20 L0,20 Z" id="Rectangle-4-Copy-11" fill="#3784FF"></path>
                <g id="编组-9" transform="translate(17.000000, 10.000000)">
                    <g id="编组-2">
                        <rect id="矩形" fill="#D8D8D8" opacity="0" x="0" y="0" width="20" height="20"></rect>
                        <g id="el-phone" transform="translate(2.222222, 2.222222)" fill="#FFFFFF" fill-rule="nonzero">
                            <g id="Icon">
                                <path d="M14.791575,12.473025 L12.6767375,14.5709 C12.3645625,14.89105 11.950775,14.9995125 11.5477875,15.0000018 C9.76565,14.9466125 8.081125,14.0712 6.698025,13.1723125 C4.42775,11.5206875 2.344675,9.47275 1.0373,6.9979 C0.535875,5.9601125 -0.052475,4.635975 0.0037375,3.4776125 C0.00875,3.0418625 0.126175,2.6142 0.4330625,2.333325 L2.5478875,0.2195625 C2.9870375,-0.153975 3.411725,-0.024825 3.69275,0.410275 L5.3941375,3.63655 C5.5732125,4.0187625 5.4704875,4.4282875 5.2033125,4.7014 L4.4241625,5.48015 C4.3760625,5.5460375 4.3454375,5.6210375 4.3446625,5.7026625 C4.6434375,6.8591875 5.548575,7.92515 6.348175,8.6587375 C7.1477625,9.3923375 8.0072375,10.3862125 9.1228875,10.6215 C9.2607875,10.6599625 9.4297,10.673475 9.5283625,10.5817625 L10.4347375,9.659975 C10.7471875,9.4231625 11.1983125,9.3074125 11.531875,9.50105 L11.547775,9.50105 L14.61665,11.3128375 C15.0671625,11.5952375 15.1141375,12.1409875 14.791575,12.473025 L14.791575,12.473025 Z" id="Icon-路径"></path>
                            </g>
                        </g>
                    </g>
                </g>
            </g>
        </g>
    </g>
</svg>